# MagicaVoxel @ Ephtracy

# group
o 

# material
mtllib dentan-5.mtl
usemtl palette

# normals
vn 1 0 0
vn -1 0 0
vn 0 0 -1
vn 0 0 1
vn 0 -1 0
vn 0 1 0

# texcoords
vt 0.947266 0.5
vt 0.951172 0.5
vt 0.955078 0.5
vt 0.982422 0.5

# verts
v 0.8 0 -0.7
v 0.8 0 -0.5
v 0.8 0 -0.4
v 0.8 0 -0.3
v 0.8 0 -0.2
v 0.8 0 -0.1
v 0.8 0 0
v 0.8 0 0.1
v 0.8 0 0.2
v 0.8 0 0.3
v 0.8 0 0.4
v 0.8 0 0.6
v 0.8 0.1 -0.8
v 0.8 0.1 -0.7
v 0.8 0.1 -0.5
v 0.8 0.1 -0.4
v 0.8 0.1 -0.3
v 0.8 0.1 -0.2
v 0.8 0.1 -0.1
v 0.8 0.1 0
v 0.8 0.1 0.1
v 0.8 0.1 0.2
v 0.8 0.1 0.3
v 0.8 0.1 0.4
v 0.8 0.1 0.6
v 0.8 0.1 0.7
v 0.8 0.2 -0.8
v 0.8 0.2 -0.7
v 0.8 0.2 -0.6
v 0.8 0.2 -0.5
v 0.8 0.2 -0.4
v 0.8 0.2 -0.3
v 0.8 0.2 -0.2
v 0.8 0.2 -0.1
v 0.8 0.2 0
v 0.8 0.2 0.1
v 0.8 0.2 0.2
v 0.8 0.2 0.3
v 0.8 0.2 0.4
v 0.8 0.2 0.5
v 0.8 0.2 0.6
v 0.8 0.2 0.7
v 0.8 0.3 -0.7
v 0.8 0.3 -0.6
v 0.8 0.3 -0.5
v 0.8 0.3 -0.4
v 0.8 0.3 -0.3
v 0.8 0.3 -0.2
v 0.8 0.3 -0.1
v 0.8 0.3 0
v 0.8 0.3 0.1
v 0.8 0.3 0.2
v 0.8 0.3 0.3
v 0.8 0.3 0.4
v 0.8 0.3 0.5
v 0.8 0.3 0.6
v 0.5 0.3 -0.3
v 0.5 0.3 -0.2
v 0.5 0.3 -0.1
v 0.5 0.3 0
v 0.5 0.3 0.1
v 0.5 0.3 0.2
v 0.5 0.5 -0.3
v 0.5 0.5 0.2
v 0.4 0.1 -0.4
v 0.4 0.1 -0.3
v 0.4 0.1 0.2
v 0.4 0.1 0.3
v 0.4 0.5 -0.4
v 0.4 0.5 -0.3
v 0.4 0.5 0.2
v 0.4 0.5 0.3
v 0.4 0.6 -0.3
v 0.4 0.6 0.2
v 0.3 0.1 -0.5
v 0.3 0.1 -0.4
v 0.3 0.1 0.3
v 0.3 0.1 0.4
v 0.3 0.5 -0.5
v 0.3 0.5 -0.4
v 0.3 0.5 -0.3
v 0.3 0.5 0.2
v 0.3 0.5 0.3
v 0.3 0.5 0.4
v 0.3 0.6 -0.4
v 0.3 0.6 -0.3
v 0.3 0.6 0.2
v 0.3 0.6 0.3
v 0.1 0.3 0.4
v 0.1 0.3 0.8
v 0.1 0.4 0.4
v 0.1 0.4 0.8
v -0.4 0 -0.7
v -0.4 0 -0.5
v -0.4 0 -0.4
v -0.4 0 -0.3
v -0.4 0 -0.2
v -0.4 0 -0.1
v -0.4 0 0
v -0.4 0 0.1
v -0.4 0 0.2
v -0.4 0 0.3
v -0.4 0 0.4
v -0.4 0 0.6
v -0.4 0.1 -0.8
v -0.4 0.1 -0.7
v -0.4 0.1 -0.5
v -0.4 0.1 -0.4
v -0.4 0.1 -0.3
v -0.4 0.1 -0.2
v -0.4 0.1 -0.1
v -0.4 0.1 0
v -0.4 0.1 0.1
v -0.4 0.1 0.2
v -0.4 0.1 0.3
v -0.4 0.1 0.4
v -0.4 0.1 0.6
v -0.4 0.1 0.7
v -0.4 0.2 -0.8
v -0.4 0.2 -0.7
v -0.4 0.2 -0.6
v -0.4 0.2 -0.5
v -0.4 0.2 -0.4
v -0.4 0.2 -0.3
v -0.4 0.2 0.2
v -0.4 0.2 0.3
v -0.4 0.2 0.4
v -0.4 0.2 0.5
v -0.4 0.2 0.6
v -0.4 0.2 0.7
v -0.4 0.3 -0.7
v -0.4 0.3 -0.6
v -0.4 0.3 -0.5
v -0.4 0.3 -0.4
v -0.4 0.3 -0.3
v -0.4 0.3 0.2
v -0.4 0.3 0.3
v -0.4 0.3 0.4
v -0.4 0.3 0.5
v -0.4 0.3 0.6
v 0.5 0 -0.7
v 0.5 0 -0.5
v 0.5 0 -0.4
v 0.5 0 -0.3
v 0.5 0 -0.2
v 0.5 0 -0.1
v 0.5 0 0
v 0.5 0 0.1
v 0.5 0 0.2
v 0.5 0 0.3
v 0.5 0 0.4
v 0.5 0 0.6
v 0.5 0.1 -0.8
v 0.5 0.1 -0.7
v 0.5 0.1 -0.5
v 0.5 0.1 -0.4
v 0.5 0.1 -0.3
v 0.5 0.1 -0.2
v 0.5 0.1 -0.1
v 0.5 0.1 0
v 0.5 0.1 0.1
v 0.5 0.1 0.2
v 0.5 0.1 0.3
v 0.5 0.1 0.4
v 0.5 0.1 0.6
v 0.5 0.1 0.7
v 0.5 0.2 -0.8
v 0.5 0.2 -0.7
v 0.5 0.2 -0.6
v 0.5 0.2 -0.5
v 0.5 0.2 -0.4
v 0.5 0.2 -0.3
v 0.5 0.2 0.2
v 0.5 0.2 0.3
v 0.5 0.2 0.4
v 0.5 0.2 0.5
v 0.5 0.2 0.6
v 0.5 0.2 0.7
v 0.5 0.3 -0.7
v 0.5 0.3 -0.6
v 0.5 0.3 -0.5
v 0.5 0.3 -0.4
v 0.5 0.3 -0.3
v 0.5 0.3 0.2
v 0.5 0.3 0.3
v 0.5 0.3 0.4
v 0.5 0.3 0.5
v 0.5 0.3 0.6
v 0 0.3 0.4
v 0 0.3 0.8
v 0 0.4 0.4
v 0 0.4 0.8
v -0.2 0.1 -0.5
v -0.2 0.1 -0.4
v -0.2 0.1 0.3
v -0.2 0.1 0.4
v -0.2 0.5 -0.5
v -0.2 0.5 -0.4
v -0.2 0.5 -0.3
v -0.2 0.5 0.2
v -0.2 0.5 0.3
v -0.2 0.5 0.4
v -0.2 0.6 -0.4
v -0.2 0.6 -0.3
v -0.2 0.6 0.2
v -0.2 0.6 0.3
v -0.3 0.1 -0.4
v -0.3 0.1 -0.3
v -0.3 0.1 0.2
v -0.3 0.1 0.3
v -0.3 0.5 -0.4
v -0.3 0.5 -0.3
v -0.3 0.5 0.2
v -0.3 0.5 0.3
v -0.3 0.6 -0.3
v -0.3 0.6 0.2
v -0.4 0.3 -0.3
v -0.4 0.3 -0.2
v -0.4 0.3 -0.1
v -0.4 0.3 0
v -0.4 0.3 0.1
v -0.4 0.3 0.2
v -0.4 0.5 -0.3
v -0.4 0.5 0.2
v -0.7 0 -0.7
v -0.7 0 -0.5
v -0.7 0 -0.4
v -0.7 0 -0.3
v -0.7 0 -0.2
v -0.7 0 -0.1
v -0.7 0 0
v -0.7 0 0.1
v -0.7 0 0.2
v -0.7 0 0.3
v -0.7 0 0.4
v -0.7 0 0.6
v -0.7 0.1 -0.8
v -0.7 0.1 -0.7
v -0.7 0.1 -0.5
v -0.7 0.1 -0.4
v -0.7 0.1 -0.3
v -0.7 0.1 -0.2
v -0.7 0.1 -0.1
v -0.7 0.1 0
v -0.7 0.1 0.1
v -0.7 0.1 0.2
v -0.7 0.1 0.3
v -0.7 0.1 0.4
v -0.7 0.1 0.6
v -0.7 0.1 0.7
v -0.7 0.2 -0.8
v -0.7 0.2 -0.7
v -0.7 0.2 -0.6
v -0.7 0.2 -0.5
v -0.7 0.2 -0.4
v -0.7 0.2 -0.3
v -0.7 0.2 -0.2
v -0.7 0.2 -0.1
v -0.7 0.2 0
v -0.7 0.2 0.1
v -0.7 0.2 0.2
v -0.7 0.2 0.3
v -0.7 0.2 0.4
v -0.7 0.2 0.5
v -0.7 0.2 0.6
v -0.7 0.2 0.7
v -0.7 0.3 -0.7
v -0.7 0.3 -0.6
v -0.7 0.3 -0.5
v -0.7 0.3 -0.4
v -0.7 0.3 -0.3
v -0.7 0.3 -0.2
v -0.7 0.3 -0.1
v -0.7 0.3 0
v -0.7 0.3 0.1
v -0.7 0.3 0.2
v -0.7 0.3 0.3
v -0.7 0.3 0.4
v -0.7 0.3 0.5
v -0.7 0.3 0.6
v 0.8 0.1 -0.8
v 0.8 0.2 -0.8
v 0.5 0.1 -0.8
v 0.5 0.2 -0.8
v -0.4 0.1 -0.8
v -0.4 0.2 -0.8
v -0.7 0.1 -0.8
v -0.7 0.2 -0.8
v 0.8 0 -0.7
v 0.8 0.1 -0.7
v 0.8 0.2 -0.7
v 0.8 0.3 -0.7
v 0.5 0 -0.7
v 0.5 0.1 -0.7
v 0.5 0.2 -0.7
v 0.5 0.3 -0.7
v -0.4 0 -0.7
v -0.4 0.1 -0.7
v -0.4 0.2 -0.7
v -0.4 0.3 -0.7
v -0.7 0 -0.7
v -0.7 0.1 -0.7
v -0.7 0.2 -0.7
v -0.7 0.3 -0.7
v 0.3 0.1 -0.5
v 0.3 0.5 -0.5
v -0.2 0.1 -0.5
v -0.2 0.5 -0.5
v 0.4 0.1 -0.4
v 0.4 0.5 -0.4
v 0.3 0.1 -0.4
v 0.3 0.5 -0.4
v 0.3 0.6 -0.4
v -0.2 0.1 -0.4
v -0.2 0.5 -0.4
v -0.2 0.6 -0.4
v -0.3 0.1 -0.4
v -0.3 0.5 -0.4
v 0.5 0.1 -0.3
v 0.5 0.2 -0.3
v 0.5 0.3 -0.3
v 0.5 0.5 -0.3
v 0.4 0.1 -0.3
v 0.4 0.5 -0.3
v 0.4 0.6 -0.3
v 0.3 0.5 -0.3
v 0.3 0.6 -0.3
v -0.2 0.5 -0.3
v -0.2 0.6 -0.3
v -0.3 0.1 -0.3
v -0.3 0.5 -0.3
v -0.3 0.6 -0.3
v -0.4 0.1 -0.3
v -0.4 0.2 -0.3
v -0.4 0.3 -0.3
v -0.4 0.5 -0.3
v 0.5 0.1 0.2
v 0.5 0.2 0.2
v 0.5 0.3 0.2
v 0.5 0.5 0.2
v 0.4 0.1 0.2
v 0.4 0.5 0.2
v 0.4 0.6 0.2
v 0.3 0.5 0.2
v 0.3 0.6 0.2
v -0.2 0.5 0.2
v -0.2 0.6 0.2
v -0.3 0.1 0.2
v -0.3 0.5 0.2
v -0.3 0.6 0.2
v -0.4 0.1 0.2
v -0.4 0.2 0.2
v -0.4 0.3 0.2
v -0.4 0.5 0.2
v 0.4 0.1 0.3
v 0.4 0.5 0.3
v 0.3 0.1 0.3
v 0.3 0.5 0.3
v 0.3 0.6 0.3
v -0.2 0.1 0.3
v -0.2 0.5 0.3
v -0.2 0.6 0.3
v -0.3 0.1 0.3
v -0.3 0.5 0.3
v 0.3 0.1 0.4
v 0.3 0.5 0.4
v 0.1 0.3 0.4
v 0.1 0.4 0.4
v 0 0.3 0.4
v 0 0.4 0.4
v -0.2 0.1 0.4
v -0.2 0.5 0.4
v 0.8 0 0.6
v 0.8 0.1 0.6
v 0.8 0.2 0.6
v 0.8 0.3 0.6
v 0.5 0 0.6
v 0.5 0.1 0.6
v 0.5 0.2 0.6
v 0.5 0.3 0.6
v -0.4 0 0.6
v -0.4 0.1 0.6
v -0.4 0.2 0.6
v -0.4 0.3 0.6
v -0.7 0 0.6
v -0.7 0.1 0.6
v -0.7 0.2 0.6
v -0.7 0.3 0.6
v 0.8 0.1 0.7
v 0.8 0.2 0.7
v 0.5 0.1 0.7
v 0.5 0.2 0.7
v -0.4 0.1 0.7
v -0.4 0.2 0.7
v -0.7 0.1 0.7
v -0.7 0.2 0.7
v 0.1 0.3 0.8
v 0.1 0.4 0.8
v 0 0.3 0.8
v 0 0.4 0.8
v 0.8 0 -0.7
v 0.5 0 -0.7
v -0.4 0 -0.7
v -0.7 0 -0.7
v 0.8 0 -0.5
v 0.5 0 -0.5
v -0.4 0 -0.5
v -0.7 0 -0.5
v 0.8 0 -0.4
v 0.5 0 -0.4
v -0.4 0 -0.4
v -0.7 0 -0.4
v 0.8 0 -0.3
v 0.5 0 -0.3
v -0.4 0 -0.3
v -0.7 0 -0.3
v 0.8 0 -0.2
v 0.5 0 -0.2
v -0.4 0 -0.2
v -0.7 0 -0.2
v 0.8 0 -0.1
v 0.5 0 -0.1
v -0.4 0 -0.1
v -0.7 0 -0.1
v 0.8 0 0
v 0.5 0 0
v -0.4 0 0
v -0.7 0 0
v 0.8 0 0.1
v 0.5 0 0.1
v -0.4 0 0.1
v -0.7 0 0.1
v 0.8 0 0.2
v 0.5 0 0.2
v -0.4 0 0.2
v -0.7 0 0.2
v 0.8 0 0.3
v 0.5 0 0.3
v -0.4 0 0.3
v -0.7 0 0.3
v 0.8 0 0.4
v 0.5 0 0.4
v -0.4 0 0.4
v -0.7 0 0.4
v 0.8 0 0.6
v 0.5 0 0.6
v -0.4 0 0.6
v -0.7 0 0.6
v 0.8 0.1 -0.8
v 0.5 0.1 -0.8
v -0.4 0.1 -0.8
v -0.7 0.1 -0.8
v 0.8 0.1 -0.7
v 0.5 0.1 -0.7
v -0.4 0.1 -0.7
v -0.7 0.1 -0.7
v 0.3 0.1 -0.5
v -0.2 0.1 -0.5
v 0.4 0.1 -0.4
v 0.3 0.1 -0.4
v -0.2 0.1 -0.4
v -0.3 0.1 -0.4
v 0.5 0.1 -0.3
v 0.4 0.1 -0.3
v -0.3 0.1 -0.3
v -0.4 0.1 -0.3
v 0.5 0.1 -0.2
v -0.4 0.1 -0.2
v 0.5 0.1 -0.1
v -0.4 0.1 -0.1
v 0.5 0.1 0
v -0.4 0.1 0
v 0.5 0.1 0.1
v -0.4 0.1 0.1
v 0.5 0.1 0.2
v 0.4 0.1 0.2
v -0.3 0.1 0.2
v -0.4 0.1 0.2
v 0.4 0.1 0.3
v 0.3 0.1 0.3
v -0.2 0.1 0.3
v -0.3 0.1 0.3
v 0.3 0.1 0.4
v -0.2 0.1 0.4
v 0.8 0.1 0.6
v 0.5 0.1 0.6
v -0.4 0.1 0.6
v -0.7 0.1 0.6
v 0.8 0.1 0.7
v 0.5 0.1 0.7
v -0.4 0.1 0.7
v -0.7 0.1 0.7
v 0.1 0.3 0.4
v 0 0.3 0.4
v 0.1 0.3 0.8
v 0 0.3 0.8
v 0.8 0.2 -0.8
v 0.5 0.2 -0.8
v -0.4 0.2 -0.8
v -0.7 0.2 -0.8
v 0.8 0.2 -0.7
v 0.5 0.2 -0.7
v -0.4 0.2 -0.7
v -0.7 0.2 -0.7
v 0.8 0.2 0.6
v 0.5 0.2 0.6
v -0.4 0.2 0.6
v -0.7 0.2 0.6
v 0.8 0.2 0.7
v 0.5 0.2 0.7
v -0.4 0.2 0.7
v -0.7 0.2 0.7
v 0.8 0.3 -0.7
v 0.5 0.3 -0.7
v -0.4 0.3 -0.7
v -0.7 0.3 -0.7
v 0.8 0.3 -0.6
v 0.5 0.3 -0.6
v -0.4 0.3 -0.6
v -0.7 0.3 -0.6
v 0.8 0.3 -0.5
v 0.5 0.3 -0.5
v -0.4 0.3 -0.5
v -0.7 0.3 -0.5
v 0.8 0.3 -0.4
v 0.5 0.3 -0.4
v -0.4 0.3 -0.4
v -0.7 0.3 -0.4
v 0.8 0.3 -0.3
v 0.5 0.3 -0.3
v -0.4 0.3 -0.3
v -0.7 0.3 -0.3
v 0.8 0.3 -0.2
v 0.5 0.3 -0.2
v -0.4 0.3 -0.2
v -0.7 0.3 -0.2
v 0.8 0.3 -0.1
v 0.5 0.3 -0.1
v -0.4 0.3 -0.1
v -0.7 0.3 -0.1
v 0.8 0.3 0
v 0.5 0.3 0
v -0.4 0.3 0
v -0.7 0.3 0
v 0.8 0.3 0.1
v 0.5 0.3 0.1
v -0.4 0.3 0.1
v -0.7 0.3 0.1
v 0.8 0.3 0.2
v 0.5 0.3 0.2
v -0.4 0.3 0.2
v -0.7 0.3 0.2
v 0.8 0.3 0.3
v 0.5 0.3 0.3
v -0.4 0.3 0.3
v -0.7 0.3 0.3
v 0.8 0.3 0.4
v 0.5 0.3 0.4
v -0.4 0.3 0.4
v -0.7 0.3 0.4
v 0.8 0.3 0.5
v 0.5 0.3 0.5
v -0.4 0.3 0.5
v -0.7 0.3 0.5
v 0.8 0.3 0.6
v 0.5 0.3 0.6
v -0.4 0.3 0.6
v -0.7 0.3 0.6
v 0.1 0.4 0.4
v 0 0.4 0.4
v 0.1 0.4 0.8
v 0 0.4 0.8
v 0.3 0.5 -0.5
v -0.2 0.5 -0.5
v 0.4 0.5 -0.4
v 0.3 0.5 -0.4
v -0.2 0.5 -0.4
v -0.3 0.5 -0.4
v 0.5 0.5 -0.3
v 0.4 0.5 -0.3
v 0.3 0.5 -0.3
v -0.2 0.5 -0.3
v -0.3 0.5 -0.3
v -0.4 0.5 -0.3
v 0.5 0.5 0.2
v 0.4 0.5 0.2
v 0.3 0.5 0.2
v -0.2 0.5 0.2
v -0.3 0.5 0.2
v -0.4 0.5 0.2
v 0.4 0.5 0.3
v 0.3 0.5 0.3
v -0.2 0.5 0.3
v -0.3 0.5 0.3
v 0.3 0.5 0.4
v -0.2 0.5 0.4
v 0.3 0.6 -0.4
v -0.2 0.6 -0.4
v 0.4 0.6 -0.3
v 0.3 0.6 -0.3
v -0.2 0.6 -0.3
v -0.3 0.6 -0.3
v 0.4 0.6 0.2
v 0.3 0.6 0.2
v -0.2 0.6 0.2
v -0.3 0.6 0.2
v 0.3 0.6 0.3
v -0.2 0.6 0.3

# faces
f 14/4/1 2/4/1 1/4/1
f 15/2/1 3/2/1 2/2/1
f 15/4/1 2/4/1 14/4/1
f 16/4/1 4/4/1 3/4/1
f 16/2/1 3/2/1 15/2/1
f 17/2/1 5/2/1 4/2/1
f 17/4/1 4/4/1 16/4/1
f 18/4/1 6/4/1 5/4/1
f 18/2/1 5/2/1 17/2/1
f 19/2/1 7/2/1 6/2/1
f 19/4/1 6/4/1 18/4/1
f 20/4/1 8/4/1 7/4/1
f 20/2/1 7/2/1 19/2/1
f 21/2/1 9/2/1 8/2/1
f 21/4/1 8/4/1 20/4/1
f 22/4/1 10/4/1 9/4/1
f 22/2/1 9/2/1 21/2/1
f 23/2/1 11/2/1 10/2/1
f 23/4/1 10/4/1 22/4/1
f 24/4/1 12/4/1 11/4/1
f 24/2/1 11/2/1 23/2/1
f 25/4/1 12/4/1 24/4/1
f 27/2/1 14/2/1 13/2/1
f 28/4/1 23/4/1 22/4/1
f 28/2/1 14/2/1 27/2/1
f 28/4/1 15/4/1 14/4/1
f 28/4/1 25/4/1 24/4/1
f 28/4/1 24/4/1 23/4/1
f 28/4/1 16/4/1 15/4/1
f 28/4/1 22/4/1 21/4/1
f 28/4/1 21/4/1 20/4/1
f 28/4/1 20/4/1 19/4/1
f 28/4/1 19/4/1 18/4/1
f 28/4/1 18/4/1 17/4/1
f 28/4/1 17/4/1 16/4/1
f 29/4/1 25/4/1 28/4/1
f 30/4/1 25/4/1 29/4/1
f 31/4/1 25/4/1 30/4/1
f 32/4/1 25/4/1 31/4/1
f 33/4/1 25/4/1 32/4/1
f 34/4/1 25/4/1 33/4/1
f 35/4/1 25/4/1 34/4/1
f 36/4/1 25/4/1 35/4/1
f 37/4/1 25/4/1 36/4/1
f 38/4/1 25/4/1 37/4/1
f 39/4/1 25/4/1 38/4/1
f 40/4/1 25/4/1 39/4/1
f 41/2/1 26/2/1 25/2/1
f 41/4/1 25/4/1 40/4/1
f 42/2/1 26/2/1 41/2/1
f 43/4/1 29/4/1 28/4/1
f 44/2/1 30/2/1 29/2/1
f 44/4/1 29/4/1 43/4/1
f 45/4/1 31/4/1 30/4/1
f 45/2/1 30/2/1 44/2/1
f 46/2/1 32/2/1 31/2/1
f 46/4/1 31/4/1 45/4/1
f 47/4/1 33/4/1 32/4/1
f 47/2/1 32/2/1 46/2/1
f 48/2/1 34/2/1 33/2/1
f 48/4/1 33/4/1 47/4/1
f 49/4/1 35/4/1 34/4/1
f 49/2/1 34/2/1 48/2/1
f 50/2/1 36/2/1 35/2/1
f 50/4/1 35/4/1 49/4/1
f 51/4/1 37/4/1 36/4/1
f 51/2/1 36/2/1 50/2/1
f 52/2/1 38/2/1 37/2/1
f 52/4/1 37/4/1 51/4/1
f 53/4/1 39/4/1 38/4/1
f 53/2/1 38/2/1 52/2/1
f 54/2/1 40/2/1 39/2/1
f 54/4/1 39/4/1 53/4/1
f 55/4/1 41/4/1 40/4/1
f 55/2/1 40/2/1 54/2/1
f 56/4/1 41/4/1 55/4/1
f 63/1/1 58/1/1 57/1/1
f 63/1/1 62/1/1 61/1/1
f 63/1/1 61/1/1 60/1/1
f 63/1/1 60/1/1 59/1/1
f 63/1/1 59/1/1 58/1/1
f 64/1/1 62/1/1 63/1/1
f 69/1/1 66/1/1 65/1/1
f 70/1/1 66/1/1 69/1/1
f 71/1/1 68/1/1 67/1/1
f 72/1/1 68/1/1 71/1/1
f 73/1/1 71/1/1 70/1/1
f 74/1/1 71/1/1 73/1/1
f 79/1/1 76/1/1 75/1/1
f 80/1/1 76/1/1 79/1/1
f 83/1/1 78/1/1 77/1/1
f 84/1/1 78/1/1 83/1/1
f 85/1/1 81/1/1 80/1/1
f 86/1/1 81/1/1 85/1/1
f 87/1/1 83/1/1 82/1/1
f 88/1/1 83/1/1 87/1/1
f 91/3/1 90/3/1 89/3/1
f 92/3/1 90/3/1 91/3/1
f 106/4/1 94/4/1 93/4/1
f 107/2/1 95/2/1 94/2/1
f 107/4/1 94/4/1 106/4/1
f 108/4/1 96/4/1 95/4/1
f 108/2/1 95/2/1 107/2/1
f 109/2/1 97/2/1 96/2/1
f 109/4/1 96/4/1 108/4/1
f 110/4/1 98/4/1 97/4/1
f 110/2/1 97/2/1 109/2/1
f 111/2/1 99/2/1 98/2/1
f 111/4/1 98/4/1 110/4/1
f 112/4/1 100/4/1 99/4/1
f 112/2/1 99/2/1 111/2/1
f 113/2/1 101/2/1 100/2/1
f 113/4/1 100/4/1 112/4/1
f 114/4/1 102/4/1 101/4/1
f 114/2/1 101/2/1 113/2/1
f 115/2/1 103/2/1 102/2/1
f 115/4/1 102/4/1 114/4/1
f 116/4/1 104/4/1 103/4/1
f 116/2/1 103/2/1 115/2/1
f 117/4/1 104/4/1 116/4/1
f 119/2/1 106/2/1 105/2/1
f 120/4/1 107/4/1 106/4/1
f 120/2/1 106/2/1 119/2/1
f 120/4/1 108/4/1 107/4/1
f 120/4/1 109/4/1 108/4/1
f 121/4/1 109/4/1 120/4/1
f 122/4/1 109/4/1 121/4/1
f 123/4/1 109/4/1 122/4/1
f 124/4/1 109/4/1 123/4/1
f 125/4/1 115/4/1 114/4/1
f 125/4/1 116/4/1 115/4/1
f 125/4/1 117/4/1 116/4/1
f 126/4/1 117/4/1 125/4/1
f 127/4/1 117/4/1 126/4/1
f 128/4/1 117/4/1 127/4/1
f 129/2/1 118/2/1 117/2/1
f 129/4/1 117/4/1 128/4/1
f 130/2/1 118/2/1 129/2/1
f 131/4/1 121/4/1 120/4/1
f 132/2/1 122/2/1 121/2/1
f 132/4/1 121/4/1 131/4/1
f 133/4/1 123/4/1 122/4/1
f 133/2/1 122/2/1 132/2/1
f 134/2/1 124/2/1 123/2/1
f 134/4/1 123/4/1 133/4/1
f 135/2/1 124/2/1 134/2/1
f 136/2/1 126/2/1 125/2/1
f 137/4/1 127/4/1 126/4/1
f 137/2/1 126/2/1 136/2/1
f 138/2/1 128/2/1 127/2/1
f 138/4/1 127/4/1 137/4/1
f 139/4/1 129/4/1 128/4/1
f 139/2/1 128/2/1 138/2/1
f 140/4/1 129/4/1 139/4/1
f 141/4/2 142/4/2 154/4/2
f 142/2/2 143/2/2 155/2/2
f 154/4/2 142/4/2 155/4/2
f 143/4/2 144/4/2 156/4/2
f 155/2/2 143/2/2 156/2/2
f 144/2/2 145/2/2 157/2/2
f 156/4/2 144/4/2 157/4/2
f 145/4/2 146/4/2 158/4/2
f 157/2/2 145/2/2 158/2/2
f 146/2/2 147/2/2 159/2/2
f 158/4/2 146/4/2 159/4/2
f 147/4/2 148/4/2 160/4/2
f 159/2/2 147/2/2 160/2/2
f 148/2/2 149/2/2 161/2/2
f 160/4/2 148/4/2 161/4/2
f 149/4/2 150/4/2 162/4/2
f 161/2/2 149/2/2 162/2/2
f 150/2/2 151/2/2 163/2/2
f 162/4/2 150/4/2 163/4/2
f 151/4/2 152/4/2 164/4/2
f 163/2/2 151/2/2 164/2/2
f 164/4/2 152/4/2 165/4/2
f 153/2/2 154/2/2 167/2/2
f 154/4/2 155/4/2 168/4/2
f 167/2/2 154/2/2 168/2/2
f 155/4/2 156/4/2 168/4/2
f 156/4/2 157/4/2 168/4/2
f 168/4/2 157/4/2 169/4/2
f 169/4/2 157/4/2 170/4/2
f 170/4/2 157/4/2 171/4/2
f 171/4/2 157/4/2 172/4/2
f 162/4/2 163/4/2 173/4/2
f 163/4/2 164/4/2 173/4/2
f 164/4/2 165/4/2 173/4/2
f 173/4/2 165/4/2 174/4/2
f 174/4/2 165/4/2 175/4/2
f 175/4/2 165/4/2 176/4/2
f 165/2/2 166/2/2 177/2/2
f 176/4/2 165/4/2 177/4/2
f 177/2/2 166/2/2 178/2/2
f 168/4/2 169/4/2 179/4/2
f 169/2/2 170/2/2 180/2/2
f 179/4/2 169/4/2 180/4/2
f 170/4/2 171/4/2 181/4/2
f 180/2/2 170/2/2 181/2/2
f 171/2/2 172/2/2 182/2/2
f 181/4/2 171/4/2 182/4/2
f 182/2/2 172/2/2 183/2/2
f 173/2/2 174/2/2 184/2/2
f 174/4/2 175/4/2 185/4/2
f 184/2/2 174/2/2 185/2/2
f 175/2/2 176/2/2 186/2/2
f 185/4/2 175/4/2 186/4/2
f 176/4/2 177/4/2 187/4/2
f 186/2/2 176/2/2 187/2/2
f 187/4/2 177/4/2 188/4/2
f 189/3/2 190/3/2 191/3/2
f 191/3/2 190/3/2 192/3/2
f 193/1/2 194/1/2 197/1/2
f 197/1/2 194/1/2 198/1/2
f 195/1/2 196/1/2 201/1/2
f 201/1/2 196/1/2 202/1/2
f 198/1/2 199/1/2 203/1/2
f 203/1/2 199/1/2 204/1/2
f 200/1/2 201/1/2 205/1/2
f 205/1/2 201/1/2 206/1/2
f 207/1/2 208/1/2 211/1/2
f 211/1/2 208/1/2 212/1/2
f 209/1/2 210/1/2 213/1/2
f 213/1/2 210/1/2 214/1/2
f 212/1/2 213/1/2 215/1/2
f 215/1/2 213/1/2 216/1/2
f 217/1/2 218/1/2 223/1/2
f 221/1/2 222/1/2 223/1/2
f 220/1/2 221/1/2 223/1/2
f 219/1/2 220/1/2 223/1/2
f 218/1/2 219/1/2 223/1/2
f 223/1/2 222/1/2 224/1/2
f 225/4/2 226/4/2 238/4/2
f 226/2/2 227/2/2 239/2/2
f 238/4/2 226/4/2 239/4/2
f 227/4/2 228/4/2 240/4/2
f 239/2/2 227/2/2 240/2/2
f 228/2/2 229/2/2 241/2/2
f 240/4/2 228/4/2 241/4/2
f 229/4/2 230/4/2 242/4/2
f 241/2/2 229/2/2 242/2/2
f 230/2/2 231/2/2 243/2/2
f 242/4/2 230/4/2 243/4/2
f 231/4/2 232/4/2 244/4/2
f 243/2/2 231/2/2 244/2/2
f 232/2/2 233/2/2 245/2/2
f 244/4/2 232/4/2 245/4/2
f 233/4/2 234/4/2 246/4/2
f 245/2/2 233/2/2 246/2/2
f 234/2/2 235/2/2 247/2/2
f 246/4/2 234/4/2 247/4/2
f 235/4/2 236/4/2 248/4/2
f 247/2/2 235/2/2 248/2/2
f 248/4/2 236/4/2 249/4/2
f 237/2/2 238/2/2 251/2/2
f 246/4/2 247/4/2 252/4/2
f 251/2/2 238/2/2 252/2/2
f 238/4/2 239/4/2 252/4/2
f 248/4/2 249/4/2 252/4/2
f 247/4/2 248/4/2 252/4/2
f 239/4/2 240/4/2 252/4/2
f 245/4/2 246/4/2 252/4/2
f 244/4/2 245/4/2 252/4/2
f 243/4/2 244/4/2 252/4/2
f 242/4/2 243/4/2 252/4/2
f 241/4/2 242/4/2 252/4/2
f 240/4/2 241/4/2 252/4/2
f 252/4/2 249/4/2 253/4/2
f 253/4/2 249/4/2 254/4/2
f 254/4/2 249/4/2 255/4/2
f 255/4/2 249/4/2 256/4/2
f 256/4/2 249/4/2 257/4/2
f 257/4/2 249/4/2 258/4/2
f 258/4/2 249/4/2 259/4/2
f 259/4/2 249/4/2 260/4/2
f 260/4/2 249/4/2 261/4/2
f 261/4/2 249/4/2 262/4/2
f 262/4/2 249/4/2 263/4/2
f 263/4/2 249/4/2 264/4/2
f 249/2/2 250/2/2 265/2/2
f 264/4/2 249/4/2 265/4/2
f 265/2/2 250/2/2 266/2/2
f 252/4/2 253/4/2 267/4/2
f 253/2/2 254/2/2 268/2/2
f 267/4/2 253/4/2 268/4/2
f 254/4/2 255/4/2 269/4/2
f 268/2/2 254/2/2 269/2/2
f 255/2/2 256/2/2 270/2/2
f 269/4/2 255/4/2 270/4/2
f 256/4/2 257/4/2 271/4/2
f 270/2/2 256/2/2 271/2/2
f 257/2/2 258/2/2 272/2/2
f 271/4/2 257/4/2 272/4/2
f 258/4/2 259/4/2 273/4/2
f 272/2/2 258/2/2 273/2/2
f 259/2/2 260/2/2 274/2/2
f 273/4/2 259/4/2 274/4/2
f 260/4/2 261/4/2 275/4/2
f 274/2/2 260/2/2 275/2/2
f 261/2/2 262/2/2 276/2/2
f 275/4/2 261/4/2 276/4/2
f 262/4/2 263/4/2 277/4/2
f 276/2/2 262/2/2 277/2/2
f 263/2/2 264/2/2 278/2/2
f 277/4/2 263/4/2 278/4/2
f 264/4/2 265/4/2 279/4/2
f 278/2/2 264/2/2 279/2/2
f 279/4/2 265/4/2 280/4/2
f 283/2/3 282/2/3 281/2/3
f 284/2/3 282/2/3 283/2/3
f 287/2/3 286/2/3 285/2/3
f 288/2/3 286/2/3 287/2/3
f 293/4/3 290/4/3 289/4/3
f 294/4/3 290/4/3 293/4/3
f 295/4/3 292/4/3 291/4/3
f 296/4/3 292/4/3 295/4/3
f 301/4/3 298/4/3 297/4/3
f 302/4/3 298/4/3 301/4/3
f 303/4/3 300/4/3 299/4/3
f 304/4/3 300/4/3 303/4/3
f 307/1/3 306/1/3 305/1/3
f 308/1/3 306/1/3 307/1/3
f 311/1/3 310/1/3 309/1/3
f 312/1/3 310/1/3 311/1/3
f 315/1/3 313/1/3 312/1/3
f 316/1/3 313/1/3 315/1/3
f 317/1/3 315/1/3 314/1/3
f 318/1/3 315/1/3 317/1/3
f 323/1/3 320/1/3 319/1/3
f 323/1/3 322/1/3 321/1/3
f 323/1/3 321/1/3 320/1/3
f 324/1/3 322/1/3 323/1/3
f 326/1/3 325/1/3 324/1/3
f 327/1/3 325/1/3 326/1/3
f 331/1/3 329/1/3 328/1/3
f 332/1/3 329/1/3 331/1/3
f 333/1/3 331/1/3 330/1/3
f 334/1/3 331/1/3 333/1/3
f 335/1/3 331/1/3 334/1/3
f 336/1/3 331/1/3 335/1/3
f 337/1/4 338/1/4 341/1/4
f 339/1/4 340/1/4 341/1/4
f 338/1/4 339/1/4 341/1/4
f 341/1/4 340/1/4 342/1/4
f 342/1/4 343/1/4 344/1/4
f 344/1/4 343/1/4 345/1/4
f 346/1/4 347/1/4 349/1/4
f 349/1/4 347/1/4 350/1/4
f 348/1/4 349/1/4 351/1/4
f 351/1/4 349/1/4 352/1/4
f 352/1/4 349/1/4 353/1/4
f 353/1/4 349/1/4 354/1/4
f 355/1/4 356/1/4 357/1/4
f 357/1/4 356/1/4 358/1/4
f 358/1/4 359/1/4 361/1/4
f 361/1/4 359/1/4 362/1/4
f 360/1/4 361/1/4 363/1/4
f 363/1/4 361/1/4 364/1/4
f 365/1/4 366/1/4 367/1/4
f 367/1/4 366/1/4 368/1/4
f 365/1/4 367/1/4 369/1/4
f 368/1/4 366/1/4 370/1/4
f 365/1/4 369/1/4 371/1/4
f 369/1/4 370/1/4 371/1/4
f 370/1/4 366/1/4 372/1/4
f 371/1/4 370/1/4 372/1/4
f 373/4/4 374/4/4 377/4/4
f 377/4/4 374/4/4 378/4/4
f 375/4/4 376/4/4 379/4/4
f 379/4/4 376/4/4 380/4/4
f 381/4/4 382/4/4 385/4/4
f 385/4/4 382/4/4 386/4/4
f 383/4/4 384/4/4 387/4/4
f 387/4/4 384/4/4 388/4/4
f 389/2/4 390/2/4 391/2/4
f 391/2/4 390/2/4 392/2/4
f 393/2/4 394/2/4 395/2/4
f 395/2/4 394/2/4 396/2/4
f 397/3/4 398/3/4 399/3/4
f 399/3/4 398/3/4 400/3/4
f 405/4/5 402/4/5 401/4/5
f 406/4/5 402/4/5 405/4/5
f 407/4/5 404/4/5 403/4/5
f 408/4/5 404/4/5 407/4/5
f 409/2/5 406/2/5 405/2/5
f 410/2/5 406/2/5 409/2/5
f 411/2/5 408/2/5 407/2/5
f 412/2/5 408/2/5 411/2/5
f 413/4/5 410/4/5 409/4/5
f 414/4/5 410/4/5 413/4/5
f 415/4/5 412/4/5 411/4/5
f 416/4/5 412/4/5 415/4/5
f 417/2/5 414/2/5 413/2/5
f 418/2/5 414/2/5 417/2/5
f 419/2/5 416/2/5 415/2/5
f 420/2/5 416/2/5 419/2/5
f 421/4/5 418/4/5 417/4/5
f 422/4/5 418/4/5 421/4/5
f 423/4/5 420/4/5 419/4/5
f 424/4/5 420/4/5 423/4/5
f 425/2/5 422/2/5 421/2/5
f 426/2/5 422/2/5 425/2/5
f 427/2/5 424/2/5 423/2/5
f 428/2/5 424/2/5 427/2/5
f 429/4/5 426/4/5 425/4/5
f 430/4/5 426/4/5 429/4/5
f 431/4/5 428/4/5 427/4/5
f 432/4/5 428/4/5 431/4/5
f 433/2/5 430/2/5 429/2/5
f 434/2/5 430/2/5 433/2/5
f 435/2/5 432/2/5 431/2/5
f 436/2/5 432/2/5 435/2/5
f 437/4/5 434/4/5 433/4/5
f 438/4/5 434/4/5 437/4/5
f 439/4/5 436/4/5 435/4/5
f 440/4/5 436/4/5 439/4/5
f 441/2/5 438/2/5 437/2/5
f 442/2/5 438/2/5 441/2/5
f 443/2/5 440/2/5 439/2/5
f 444/2/5 440/2/5 443/2/5
f 445/4/5 442/4/5 441/4/5
f 446/4/5 442/4/5 445/4/5
f 447/4/5 444/4/5 443/4/5
f 448/4/5 444/4/5 447/4/5
f 453/2/5 450/2/5 449/2/5
f 454/2/5 450/2/5 453/2/5
f 455/2/5 452/2/5 451/2/5
f 456/2/5 452/2/5 455/2/5
f 460/1/5 458/1/5 457/1/5
f 461/1/5 458/1/5 460/1/5
f 464/1/5 460/1/5 459/1/5
f 464/1/5 462/1/5 461/1/5
f 464/1/5 461/1/5 460/1/5
f 465/1/5 462/1/5 464/1/5
f 467/1/5 464/1/5 463/1/5
f 467/1/5 466/1/5 465/1/5
f 467/1/5 465/1/5 464/1/5
f 468/1/5 466/1/5 467/1/5
f 469/1/5 468/1/5 467/1/5
f 470/1/5 468/1/5 469/1/5
f 471/1/5 470/1/5 469/1/5
f 472/1/5 470/1/5 471/1/5
f 473/1/5 472/1/5 471/1/5
f 474/1/5 472/1/5 473/1/5
f 475/1/5 474/1/5 473/1/5
f 476/1/5 474/1/5 475/1/5
f 477/1/5 474/1/5 476/1/5
f 478/1/5 474/1/5 477/1/5
f 479/1/5 477/1/5 476/1/5
f 480/1/5 477/1/5 479/1/5
f 481/1/5 477/1/5 480/1/5
f 482/1/5 477/1/5 481/1/5
f 483/1/5 481/1/5 480/1/5
f 484/1/5 481/1/5 483/1/5
f 489/2/5 486/2/5 485/2/5
f 490/2/5 486/2/5 489/2/5
f 491/2/5 488/2/5 487/2/5
f 492/2/5 488/2/5 491/2/5
f 495/3/5 494/3/5 493/3/5
f 496/3/5 494/3/5 495/3/5
f 497/2/6 498/2/6 501/2/6
f 501/2/6 498/2/6 502/2/6
f 499/2/6 500/2/6 503/2/6
f 503/2/6 500/2/6 504/2/6
f 505/2/6 506/2/6 509/2/6
f 509/2/6 506/2/6 510/2/6
f 507/2/6 508/2/6 511/2/6
f 511/2/6 508/2/6 512/2/6
f 513/4/6 514/4/6 517/4/6
f 517/4/6 514/4/6 518/4/6
f 515/4/6 516/4/6 519/4/6
f 519/4/6 516/4/6 520/4/6
f 517/2/6 518/2/6 521/2/6
f 521/2/6 518/2/6 522/2/6
f 519/2/6 520/2/6 523/2/6
f 523/2/6 520/2/6 524/2/6
f 521/4/6 522/4/6 525/4/6
f 525/4/6 522/4/6 526/4/6
f 523/4/6 524/4/6 527/4/6
f 527/4/6 524/4/6 528/4/6
f 525/2/6 526/2/6 529/2/6
f 529/2/6 526/2/6 530/2/6
f 527/2/6 528/2/6 531/2/6
f 531/2/6 528/2/6 532/2/6
f 529/4/6 530/4/6 533/4/6
f 533/4/6 530/4/6 534/4/6
f 531/4/6 532/4/6 535/4/6
f 535/4/6 532/4/6 536/4/6
f 533/2/6 534/2/6 537/2/6
f 537/2/6 534/2/6 538/2/6
f 535/2/6 536/2/6 539/2/6
f 539/2/6 536/2/6 540/2/6
f 537/4/6 538/4/6 541/4/6
f 541/4/6 538/4/6 542/4/6
f 539/4/6 540/4/6 543/4/6
f 543/4/6 540/4/6 544/4/6
f 541/2/6 542/2/6 545/2/6
f 545/2/6 542/2/6 546/2/6
f 543/2/6 544/2/6 547/2/6
f 547/2/6 544/2/6 548/2/6
f 545/4/6 546/4/6 549/4/6
f 549/4/6 546/4/6 550/4/6
f 547/4/6 548/4/6 551/4/6
f 551/4/6 548/4/6 552/4/6
f 549/2/6 550/2/6 553/2/6
f 553/2/6 550/2/6 554/2/6
f 551/2/6 552/2/6 555/2/6
f 555/2/6 552/2/6 556/2/6
f 553/4/6 554/4/6 557/4/6
f 557/4/6 554/4/6 558/4/6
f 555/4/6 556/4/6 559/4/6
f 559/4/6 556/4/6 560/4/6
f 557/2/6 558/2/6 561/2/6
f 561/2/6 558/2/6 562/2/6
f 559/2/6 560/2/6 563/2/6
f 563/2/6 560/2/6 564/2/6
f 561/4/6 562/4/6 565/4/6
f 565/4/6 562/4/6 566/4/6
f 563/4/6 564/4/6 567/4/6
f 567/4/6 564/4/6 568/4/6
f 569/3/6 570/3/6 571/3/6
f 571/3/6 570/3/6 572/3/6
f 573/1/6 574/1/6 576/1/6
f 576/1/6 574/1/6 577/1/6
f 575/1/6 576/1/6 580/1/6
f 580/1/6 576/1/6 581/1/6
f 577/1/6 578/1/6 582/1/6
f 582/1/6 578/1/6 583/1/6
f 579/1/6 580/1/6 585/1/6
f 585/1/6 580/1/6 586/1/6
f 583/1/6 584/1/6 589/1/6
f 589/1/6 584/1/6 590/1/6
f 586/1/6 587/1/6 591/1/6
f 591/1/6 587/1/6 592/1/6
f 588/1/6 589/1/6 593/1/6
f 593/1/6 589/1/6 594/1/6
f 592/1/6 593/1/6 595/1/6
f 595/1/6 593/1/6 596/1/6
f 597/1/6 598/1/6 600/1/6
f 600/1/6 598/1/6 601/1/6
f 599/1/6 600/1/6 603/1/6
f 601/1/6 602/1/6 603/1/6
f 600/1/6 601/1/6 603/1/6
f 603/1/6 602/1/6 604/1/6
f 604/1/6 602/1/6 605/1/6
f 605/1/6 602/1/6 606/1/6
f 604/1/6 605/1/6 607/1/6
f 607/1/6 605/1/6 608/1/6
