# MagicaVoxel @ Ephtracy

# group
o 

# material
mtllib dentan-8.mtl
usemtl palette

# normals
vn -1 0 0
vn 1 0 0
vn 0 0 1
vn 0 0 -1
vn 0 -1 0
vn 0 1 0

# texcoords
vt 0.970703 0.5
vt 0.974609 0.5
vt 0.978516 0.5
vt 0.982422 0.5

# verts
v -0.3 0 0.3
v -0.3 0 -0.3
v -0.3 0.4 0.3
v -0.3 0.4 -0.3
v -0.3 0.5 0.3
v -0.3 0.5 -0.3
v -0.2 0.5 0.2
v -0.2 0.5 -0.2
v -0.2 0.6 0.2
v -0.2 0.6 -0.2
v 0.2 0.5 0.2
v 0.2 0.5 -0.2
v 0.2 0.6 0.2
v 0.2 0.6 -0.2
v 0.3 0 0.3
v 0.3 0 -0.3
v 0.3 0.4 -0.2
v 0.3 0.4 -0.3
v 0.3 0.5 0.3
v 0.3 0.5 -0.2
v 0.3 0.5 -0.3
v -0.3 0 0.3
v -0.3 0.4 0.3
v -0.3 0.5 0.3
v -0.2 0.4 0.3
v -0.2 0.5 0.3
v 0.3 0 0.3
v 0.3 0.5 0.3
v -0.2 0.5 0.2
v -0.2 0.6 0.2
v 0.2 0.5 0.2
v 0.2 0.6 0.2
v -0.2 0.5 -0.2
v -0.2 0.6 -0.2
v 0.2 0.5 -0.2
v 0.2 0.6 -0.2
v -0.3 0 -0.3
v -0.3 0.4 -0.3
v -0.3 0.5 -0.3
v 0.3 0 -0.3
v 0.3 0.4 -0.3
v 0.3 0.5 -0.3
v -0.3 0 0.3
v 0.3 0 0.3
v -0.3 0 -0.3
v 0.3 0 -0.3
v -0.3 0.5 0.3
v -0.2 0.5 0.3
v 0.3 0.5 0.3
v -0.2 0.5 0.2
v 0.2 0.5 0.2
v -0.2 0.5 -0.2
v 0.2 0.5 -0.2
v 0.3 0.5 -0.2
v -0.3 0.5 -0.3
v 0.3 0.5 -0.3
v -0.2 0.6 0.2
v 0.2 0.6 0.2
v -0.2 0.6 -0.2
v 0.2 0.6 -0.2

# faces
f 3/2/1 2/2/1 1/2/1
f 4/2/1 2/2/1 3/2/1
f 5/4/1 4/4/1 3/4/1
f 6/4/1 4/4/1 5/4/1
f 9/3/1 8/3/1 7/3/1
f 10/3/1 8/3/1 9/3/1
f 11/3/2 12/3/2 13/3/2
f 13/3/2 12/3/2 14/3/2
f 15/2/2 16/2/2 17/2/2
f 17/2/2 16/2/2 18/2/2
f 15/2/2 17/2/2 19/2/2
f 17/4/2 18/4/2 20/4/2
f 19/2/2 17/2/2 20/2/2
f 20/4/2 18/4/2 21/4/2
f 25/2/3 23/2/3 22/2/3
f 25/4/3 24/4/3 23/4/3
f 26/4/3 24/4/3 25/4/3
f 27/2/3 25/2/3 22/2/3
f 27/2/3 26/2/3 25/2/3
f 28/2/3 26/2/3 27/2/3
f 31/3/3 30/3/3 29/3/3
f 32/3/3 30/3/3 31/3/3
f 33/3/4 34/3/4 35/3/4
f 35/3/4 34/3/4 36/3/4
f 37/2/4 38/2/4 40/2/4
f 38/4/4 39/4/4 41/4/4
f 40/2/4 38/2/4 41/2/4
f 41/4/4 39/4/4 42/4/4
f 45/2/5 44/2/5 43/2/5
f 46/2/5 44/2/5 45/2/5
f 47/4/6 48/4/6 50/4/6
f 48/2/6 49/2/6 50/2/6
f 50/2/6 49/2/6 51/2/6
f 47/4/6 50/4/6 52/4/6
f 51/2/6 49/2/6 53/2/6
f 53/2/6 49/2/6 54/2/6
f 47/4/6 52/4/6 55/4/6
f 52/4/6 53/4/6 55/4/6
f 53/4/6 54/4/6 55/4/6
f 55/4/6 54/4/6 56/4/6
f 57/3/6 58/3/6 59/3/6
f 59/3/6 58/3/6 60/3/6
