# MagicaVoxel @ Ephtracy

# group
o 

# material
mtllib dentan-9.mtl
usemtl palette

# normals
vn -1 0 0
vn 1 0 0
vn 0 0 1
vn 0 0 -1
vn 0 -1 0
vn 0 1 0

# texcoords
vt 0.939453 0.5
vt 0.943359 0.5

# verts
v -0.3 0.3 0.3
v -0.3 0.3 0.2
v -0.3 0.3 0.1
v -0.3 0.3 -0.1
v -0.3 0.3 -0.2
v -0.3 0.3 -0.3
v -0.3 0.4 0.3
v -0.3 0.4 0.2
v -0.3 0.4 0.1
v -0.3 0.4 -0.1
v -0.3 0.4 -0.2
v -0.3 0.4 -0.3
v 0.3 0.3 0.3
v 0.3 0.3 0.2
v 0.3 0.3 0.1
v 0.3 0.3 -0.1
v 0.3 0.3 -0.2
v 0.3 0.3 -0.3
v 0.3 0.4 0.3
v 0.3 0.4 0.2
v 0.3 0.4 0.1
v 0.3 0.4 -0.1
v 0.3 0.4 -0.2
v 0.3 0.4 -0.3
v -0.3 0.3 0.3
v -0.3 0.4 0.3
v -0.2 0.3 0.3
v -0.2 0.4 0.3
v -0.1 0.3 0.3
v -0.1 0.4 0.3
v 0.3 0.3 0.3
v 0.3 0.4 0.3
v -0.3 0.3 -0.3
v -0.3 0.4 -0.3
v 0.1 0.3 -0.3
v 0.1 0.4 -0.3
v 0.2 0.3 -0.3
v 0.2 0.4 -0.3
v 0.3 0.3 -0.3
v 0.3 0.4 -0.3
v -0.3 0.3 0.3
v -0.2 0.3 0.3
v -0.1 0.3 0.3
v 0.3 0.3 0.3
v -0.3 0.3 0.2
v -0.2 0.3 0.2
v -0.1 0.3 0.2
v 0 0.3 0.2
v 0.1 0.3 0.2
v 0.2 0.3 0.2
v 0.3 0.3 0.2
v -0.3 0.3 0.1
v -0.2 0.3 0.1
v 0 0.3 0.1
v 0.1 0.3 0.1
v 0.2 0.3 0.1
v 0.3 0.3 0.1
v -0.2 0.3 0
v 0 0.3 0
v 0.1 0.3 0
v 0.2 0.3 0
v -0.3 0.3 -0.1
v -0.2 0.3 -0.1
v 0 0.3 -0.1
v 0.2 0.3 -0.1
v 0.3 0.3 -0.1
v -0.3 0.3 -0.2
v -0.2 0.3 -0.2
v 0.1 0.3 -0.2
v 0.2 0.3 -0.2
v 0.3 0.3 -0.2
v -0.3 0.3 -0.3
v 0.1 0.3 -0.3
v 0.2 0.3 -0.3
v 0.3 0.3 -0.3
v -0.3 0.4 0.3
v -0.2 0.4 0.3
v -0.1 0.4 0.3
v 0.3 0.4 0.3
v -0.3 0.4 0.2
v -0.2 0.4 0.2
v -0.1 0.4 0.2
v 0 0.4 0.2
v 0.1 0.4 0.2
v 0.2 0.4 0.2
v 0.3 0.4 0.2
v -0.3 0.4 0.1
v -0.2 0.4 0.1
v 0 0.4 0.1
v 0.1 0.4 0.1
v 0.2 0.4 0.1
v 0.3 0.4 0.1
v -0.2 0.4 0
v 0 0.4 0
v 0.1 0.4 0
v 0.2 0.4 0
v -0.3 0.4 -0.1
v -0.2 0.4 -0.1
v 0 0.4 -0.1
v 0.2 0.4 -0.1
v 0.3 0.4 -0.1
v -0.3 0.4 -0.2
v -0.2 0.4 -0.2
v 0.1 0.4 -0.2
v 0.2 0.4 -0.2
v 0.3 0.4 -0.2
v -0.3 0.4 -0.3
v 0.1 0.4 -0.3
v 0.2 0.4 -0.3
v 0.3 0.4 -0.3

# faces
f 7/1/1 2/1/1 1/1/1
f 8/2/1 3/2/1 2/2/1
f 8/1/1 2/1/1 7/1/1
f 9/1/1 4/1/1 3/1/1
f 9/2/1 3/2/1 8/2/1
f 10/2/1 5/2/1 4/2/1
f 10/1/1 4/1/1 9/1/1
f 11/1/1 6/1/1 5/1/1
f 11/2/1 5/2/1 10/2/1
f 12/1/1 6/1/1 11/1/1
f 13/1/2 14/1/2 19/1/2
f 14/2/2 15/2/2 20/2/2
f 19/1/2 14/1/2 20/1/2
f 15/1/2 16/1/2 21/1/2
f 20/2/2 15/2/2 21/2/2
f 16/2/2 17/2/2 22/2/2
f 21/1/2 16/1/2 22/1/2
f 17/1/2 18/1/2 23/1/2
f 22/2/2 17/2/2 23/2/2
f 23/1/2 18/1/2 24/1/2
f 27/1/3 26/1/3 25/1/3
f 28/1/3 26/1/3 27/1/3
f 29/2/3 28/2/3 27/2/3
f 30/2/3 28/2/3 29/2/3
f 31/1/3 30/1/3 29/1/3
f 32/1/3 30/1/3 31/1/3
f 33/1/4 34/1/4 35/1/4
f 35/1/4 34/1/4 36/1/4
f 35/2/4 36/2/4 37/2/4
f 37/2/4 36/2/4 38/2/4
f 37/1/4 38/1/4 39/1/4
f 39/1/4 38/1/4 40/1/4
f 45/1/5 42/1/5 41/1/5
f 46/2/5 43/2/5 42/2/5
f 46/1/5 42/1/5 45/1/5
f 47/1/5 44/1/5 43/1/5
f 47/2/5 43/2/5 46/2/5
f 48/1/5 44/1/5 47/1/5
f 49/1/5 44/1/5 48/1/5
f 50/1/5 44/1/5 49/1/5
f 51/1/5 44/1/5 50/1/5
f 52/2/5 46/2/5 45/2/5
f 53/1/5 47/1/5 46/1/5
f 53/2/5 46/2/5 52/2/5
f 53/1/5 48/1/5 47/1/5
f 54/2/5 49/2/5 48/2/5
f 54/1/5 48/1/5 53/1/5
f 55/1/5 50/1/5 49/1/5
f 55/2/5 49/2/5 54/2/5
f 56/2/5 51/2/5 50/2/5
f 56/1/5 50/1/5 55/1/5
f 57/2/5 51/2/5 56/2/5
f 58/1/5 55/1/5 54/1/5
f 58/1/5 53/1/5 52/1/5
f 58/1/5 54/1/5 53/1/5
f 59/1/5 55/1/5 58/1/5
f 60/2/5 56/2/5 55/2/5
f 60/1/5 55/1/5 59/1/5
f 61/1/5 57/1/5 56/1/5
f 61/2/5 56/2/5 60/2/5
f 62/1/5 58/1/5 52/1/5
f 63/2/5 59/2/5 58/2/5
f 63/1/5 58/1/5 62/1/5
f 64/1/5 60/1/5 59/1/5
f 64/2/5 59/2/5 63/2/5
f 64/1/5 61/1/5 60/1/5
f 65/1/5 57/1/5 61/1/5
f 65/1/5 61/1/5 64/1/5
f 66/1/5 57/1/5 65/1/5
f 67/2/5 63/2/5 62/2/5
f 68/1/5 64/1/5 63/1/5
f 68/2/5 63/2/5 67/2/5
f 68/1/5 65/1/5 64/1/5
f 69/1/5 65/1/5 68/1/5
f 70/2/5 66/2/5 65/2/5
f 70/1/5 65/1/5 69/1/5
f 71/2/5 66/2/5 70/2/5
f 72/1/5 69/1/5 68/1/5
f 72/1/5 68/1/5 67/1/5
f 73/2/5 70/2/5 69/2/5
f 73/1/5 69/1/5 72/1/5
f 74/1/5 71/1/5 70/1/5
f 74/2/5 70/2/5 73/2/5
f 75/1/5 71/1/5 74/1/5
f 76/1/6 77/1/6 80/1/6
f 77/2/6 78/2/6 81/2/6
f 80/1/6 77/1/6 81/1/6
f 78/1/6 79/1/6 82/1/6
f 81/2/6 78/2/6 82/2/6
f 82/1/6 79/1/6 83/1/6
f 83/1/6 79/1/6 84/1/6
f 84/1/6 79/1/6 85/1/6
f 85/1/6 79/1/6 86/1/6
f 80/2/6 81/2/6 87/2/6
f 81/1/6 82/1/6 88/1/6
f 87/2/6 81/2/6 88/2/6
f 82/1/6 83/1/6 88/1/6
f 83/2/6 84/2/6 89/2/6
f 88/1/6 83/1/6 89/1/6
f 84/1/6 85/1/6 90/1/6
f 89/2/6 84/2/6 90/2/6
f 85/2/6 86/2/6 91/2/6
f 90/1/6 85/1/6 91/1/6
f 91/2/6 86/2/6 92/2/6
f 89/1/6 90/1/6 93/1/6
f 87/1/6 88/1/6 93/1/6
f 88/1/6 89/1/6 93/1/6
f 93/1/6 90/1/6 94/1/6
f 90/2/6 91/2/6 95/2/6
f 94/1/6 90/1/6 95/1/6
f 91/1/6 92/1/6 96/1/6
f 95/2/6 91/2/6 96/2/6
f 87/1/6 93/1/6 97/1/6
f 93/2/6 94/2/6 98/2/6
f 97/1/6 93/1/6 98/1/6
f 94/1/6 95/1/6 99/1/6
f 98/2/6 94/2/6 99/2/6
f 95/1/6 96/1/6 99/1/6
f 96/1/6 92/1/6 100/1/6
f 99/1/6 96/1/6 100/1/6
f 100/1/6 92/1/6 101/1/6
f 97/2/6 98/2/6 102/2/6
f 98/1/6 99/1/6 103/1/6
f 102/2/6 98/2/6 103/2/6
f 99/1/6 100/1/6 103/1/6
f 103/1/6 100/1/6 104/1/6
f 100/2/6 101/2/6 105/2/6
f 104/1/6 100/1/6 105/1/6
f 105/2/6 101/2/6 106/2/6
f 103/1/6 104/1/6 107/1/6
f 102/1/6 103/1/6 107/1/6
f 104/2/6 105/2/6 108/2/6
f 107/1/6 104/1/6 108/1/6
f 105/1/6 106/1/6 109/1/6
f 108/2/6 105/2/6 109/2/6
f 109/1/6 106/1/6 110/1/6
